<mxfile host="app.diagrams.net" modified="2023-04-17T06:34:30.193Z" agent="Mozilla/5.0 (Windows NT 10.0; Win64; x64) AppleWebKit/537.36 (KHTML, like Gecko) Chrome/95.0.4638.69 Safari/537.36" etag="3dhyUsrUggxNAnSAHKYC" version="21.1.8" type="github">
  <diagram id="BXvUDqLVCmXe3IDv-FlF" name="第 1 页">
    <mxGraphModel dx="2475" dy="908" grid="1" gridSize="10" guides="1" tooltips="1" connect="1" arrows="1" fold="1" page="1" pageScale="1" pageWidth="827" pageHeight="1169" math="0" shadow="0">
      <root>
        <mxCell id="0" />
        <mxCell id="1" parent="0" />
        <mxCell id="WGYEJDp8sxmvNU9je4DJ-15" value="" style="whiteSpace=wrap;html=1;fillColor=none;dashed=1;" parent="1" vertex="1">
          <mxGeometry x="640" y="390" width="120" height="220" as="geometry" />
        </mxCell>
        <mxCell id="A1RB2vR96zj_fB3p0bCd-20" style="edgeStyle=orthogonalEdgeStyle;rounded=0;orthogonalLoop=1;jettySize=auto;html=1;exitX=1;exitY=0.5;exitDx=0;exitDy=0;entryX=0;entryY=0.5;entryDx=0;entryDy=0;" edge="1" parent="1" source="WGYEJDp8sxmvNU9je4DJ-4" target="A1RB2vR96zj_fB3p0bCd-7">
          <mxGeometry relative="1" as="geometry" />
        </mxCell>
        <mxCell id="A1RB2vR96zj_fB3p0bCd-31" style="edgeStyle=orthogonalEdgeStyle;rounded=0;orthogonalLoop=1;jettySize=auto;html=1;exitX=1;exitY=0.5;exitDx=0;exitDy=0;entryX=0;entryY=0.5;entryDx=0;entryDy=0;" edge="1" parent="1" source="WGYEJDp8sxmvNU9je4DJ-4" target="A1RB2vR96zj_fB3p0bCd-28">
          <mxGeometry relative="1" as="geometry" />
        </mxCell>
        <mxCell id="WGYEJDp8sxmvNU9je4DJ-4" value="client" style="whiteSpace=wrap;html=1;aspect=fixed;" parent="1" vertex="1">
          <mxGeometry x="-320" y="270" width="80" height="80" as="geometry" />
        </mxCell>
        <mxCell id="WGYEJDp8sxmvNU9je4DJ-13" value="db" style="whiteSpace=wrap;html=1;aspect=fixed;" parent="1" vertex="1">
          <mxGeometry x="660" y="420" width="80" height="80" as="geometry" />
        </mxCell>
        <mxCell id="WGYEJDp8sxmvNU9je4DJ-29" value="db" style="whiteSpace=wrap;html=1;aspect=fixed;" parent="1" vertex="1">
          <mxGeometry x="660" y="410" width="80" height="80" as="geometry" />
        </mxCell>
        <mxCell id="WGYEJDp8sxmvNU9je4DJ-30" value="db" style="whiteSpace=wrap;html=1;aspect=fixed;" parent="1" vertex="1">
          <mxGeometry x="660" y="500" width="80" height="80" as="geometry" />
        </mxCell>
        <mxCell id="WGYEJDp8sxmvNU9je4DJ-31" style="edgeStyle=none;rounded=0;orthogonalLoop=1;jettySize=auto;html=1;exitX=0.5;exitY=1;exitDx=0;exitDy=0;" parent="1" source="WGYEJDp8sxmvNU9je4DJ-15" target="WGYEJDp8sxmvNU9je4DJ-15" edge="1">
          <mxGeometry relative="1" as="geometry" />
        </mxCell>
        <mxCell id="WGYEJDp8sxmvNU9je4DJ-34" style="edgeStyle=none;rounded=0;orthogonalLoop=1;jettySize=auto;html=1;exitX=0.5;exitY=1;exitDx=0;exitDy=0;" parent="1" source="WGYEJDp8sxmvNU9je4DJ-15" target="WGYEJDp8sxmvNU9je4DJ-15" edge="1">
          <mxGeometry relative="1" as="geometry" />
        </mxCell>
        <mxCell id="A1RB2vR96zj_fB3p0bCd-9" value="" style="group" vertex="1" connectable="0" parent="1">
          <mxGeometry x="-10" y="100" width="250" height="110" as="geometry" />
        </mxCell>
        <mxCell id="A1RB2vR96zj_fB3p0bCd-1" value="nginx" style="rounded=0;whiteSpace=wrap;html=1;" vertex="1" parent="A1RB2vR96zj_fB3p0bCd-9">
          <mxGeometry x="142.8571428571429" y="15.714285714285712" width="85.71428571428572" height="31.428571428571423" as="geometry" />
        </mxCell>
        <mxCell id="A1RB2vR96zj_fB3p0bCd-4" style="edgeStyle=orthogonalEdgeStyle;rounded=0;orthogonalLoop=1;jettySize=auto;html=1;exitX=1;exitY=0.5;exitDx=0;exitDy=0;entryX=0;entryY=0.5;entryDx=0;entryDy=0;" edge="1" parent="A1RB2vR96zj_fB3p0bCd-9" source="A1RB2vR96zj_fB3p0bCd-2" target="A1RB2vR96zj_fB3p0bCd-1">
          <mxGeometry relative="1" as="geometry" />
        </mxCell>
        <mxCell id="A1RB2vR96zj_fB3p0bCd-2" value="lvs" style="rounded=0;whiteSpace=wrap;html=1;" vertex="1" parent="A1RB2vR96zj_fB3p0bCd-9">
          <mxGeometry x="21.42857142857143" y="41.9047619047619" width="85.71428571428572" height="31.428571428571423" as="geometry" />
        </mxCell>
        <mxCell id="A1RB2vR96zj_fB3p0bCd-5" value="nginx" style="rounded=0;whiteSpace=wrap;html=1;" vertex="1" parent="A1RB2vR96zj_fB3p0bCd-9">
          <mxGeometry x="142.8571428571429" y="62.85714285714285" width="85.71428571428572" height="31.428571428571423" as="geometry" />
        </mxCell>
        <mxCell id="A1RB2vR96zj_fB3p0bCd-6" style="edgeStyle=orthogonalEdgeStyle;rounded=0;orthogonalLoop=1;jettySize=auto;html=1;exitX=1;exitY=0.5;exitDx=0;exitDy=0;entryX=0;entryY=0.5;entryDx=0;entryDy=0;" edge="1" parent="A1RB2vR96zj_fB3p0bCd-9" source="A1RB2vR96zj_fB3p0bCd-2" target="A1RB2vR96zj_fB3p0bCd-5">
          <mxGeometry relative="1" as="geometry" />
        </mxCell>
        <mxCell id="A1RB2vR96zj_fB3p0bCd-7" value="" style="whiteSpace=wrap;html=1;fillColor=none;dashed=1;movable=1;resizable=1;rotatable=1;deletable=1;editable=1;locked=0;connectable=1;" vertex="1" parent="A1RB2vR96zj_fB3p0bCd-9">
          <mxGeometry width="250.00000000000003" height="109.99999999999999" as="geometry" />
        </mxCell>
        <mxCell id="A1RB2vR96zj_fB3p0bCd-8" value="接入层" style="text;html=1;strokeColor=none;fillColor=none;align=center;verticalAlign=middle;whiteSpace=wrap;rounded=0;" vertex="1" parent="A1RB2vR96zj_fB3p0bCd-9">
          <mxGeometry width="42.85714285714286" height="15.714285714285712" as="geometry" />
        </mxCell>
        <mxCell id="A1RB2vR96zj_fB3p0bCd-11" style="edgeStyle=orthogonalEdgeStyle;rounded=0;orthogonalLoop=1;jettySize=auto;html=1;exitX=1;exitY=0.5;exitDx=0;exitDy=0;entryX=0;entryY=0.5;entryDx=0;entryDy=0;" edge="1" parent="1" source="A1RB2vR96zj_fB3p0bCd-7" target="WGYEJDp8sxmvNU9je4DJ-21">
          <mxGeometry relative="1" as="geometry" />
        </mxCell>
        <mxCell id="A1RB2vR96zj_fB3p0bCd-22" value="" style="group" vertex="1" connectable="0" parent="1">
          <mxGeometry x="-10" y="430" width="250" height="110" as="geometry" />
        </mxCell>
        <mxCell id="A1RB2vR96zj_fB3p0bCd-23" value="nginx" style="rounded=0;whiteSpace=wrap;html=1;" vertex="1" parent="A1RB2vR96zj_fB3p0bCd-22">
          <mxGeometry x="142.8571428571429" y="15.714285714285712" width="85.71428571428572" height="31.428571428571423" as="geometry" />
        </mxCell>
        <mxCell id="A1RB2vR96zj_fB3p0bCd-24" style="edgeStyle=orthogonalEdgeStyle;rounded=0;orthogonalLoop=1;jettySize=auto;html=1;exitX=1;exitY=0.5;exitDx=0;exitDy=0;entryX=0;entryY=0.5;entryDx=0;entryDy=0;" edge="1" parent="A1RB2vR96zj_fB3p0bCd-22" source="A1RB2vR96zj_fB3p0bCd-25" target="A1RB2vR96zj_fB3p0bCd-23">
          <mxGeometry relative="1" as="geometry" />
        </mxCell>
        <mxCell id="A1RB2vR96zj_fB3p0bCd-25" value="lvs" style="rounded=0;whiteSpace=wrap;html=1;" vertex="1" parent="A1RB2vR96zj_fB3p0bCd-22">
          <mxGeometry x="21.42857142857143" y="41.9047619047619" width="85.71428571428572" height="31.428571428571423" as="geometry" />
        </mxCell>
        <mxCell id="A1RB2vR96zj_fB3p0bCd-26" value="nginx" style="rounded=0;whiteSpace=wrap;html=1;" vertex="1" parent="A1RB2vR96zj_fB3p0bCd-22">
          <mxGeometry x="142.8571428571429" y="62.85714285714285" width="85.71428571428572" height="31.428571428571423" as="geometry" />
        </mxCell>
        <mxCell id="A1RB2vR96zj_fB3p0bCd-27" style="edgeStyle=orthogonalEdgeStyle;rounded=0;orthogonalLoop=1;jettySize=auto;html=1;exitX=1;exitY=0.5;exitDx=0;exitDy=0;entryX=0;entryY=0.5;entryDx=0;entryDy=0;" edge="1" parent="A1RB2vR96zj_fB3p0bCd-22" source="A1RB2vR96zj_fB3p0bCd-25" target="A1RB2vR96zj_fB3p0bCd-26">
          <mxGeometry relative="1" as="geometry" />
        </mxCell>
        <mxCell id="A1RB2vR96zj_fB3p0bCd-28" value="" style="whiteSpace=wrap;html=1;fillColor=none;dashed=1;movable=1;resizable=1;rotatable=1;deletable=1;editable=1;locked=0;connectable=1;" vertex="1" parent="A1RB2vR96zj_fB3p0bCd-22">
          <mxGeometry width="250.00000000000003" height="109.99999999999999" as="geometry" />
        </mxCell>
        <mxCell id="A1RB2vR96zj_fB3p0bCd-29" value="接入层" style="text;html=1;strokeColor=none;fillColor=none;align=center;verticalAlign=middle;whiteSpace=wrap;rounded=0;" vertex="1" parent="A1RB2vR96zj_fB3p0bCd-22">
          <mxGeometry width="42.85714285714286" height="15.714285714285712" as="geometry" />
        </mxCell>
        <mxCell id="A1RB2vR96zj_fB3p0bCd-32" value="" style="group" vertex="1" connectable="0" parent="1">
          <mxGeometry x="365" y="45" width="150" height="220" as="geometry" />
        </mxCell>
        <mxCell id="WGYEJDp8sxmvNU9je4DJ-21" value="" style="whiteSpace=wrap;html=1;fillColor=none;dashed=1;" parent="A1RB2vR96zj_fB3p0bCd-32" vertex="1">
          <mxGeometry width="150" height="220" as="geometry" />
        </mxCell>
        <mxCell id="WGYEJDp8sxmvNU9je4DJ-2" value="auth" style="whiteSpace=wrap;html=1;aspect=fixed;" parent="A1RB2vR96zj_fB3p0bCd-32" vertex="1">
          <mxGeometry x="40" y="130" width="80" height="80" as="geometry" />
        </mxCell>
        <mxCell id="WGYEJDp8sxmvNU9je4DJ-20" value="auth" style="whiteSpace=wrap;html=1;aspect=fixed;" parent="A1RB2vR96zj_fB3p0bCd-32" vertex="1">
          <mxGeometry x="40" y="20" width="80" height="80" as="geometry" />
        </mxCell>
        <mxCell id="A1RB2vR96zj_fB3p0bCd-33" style="edgeStyle=orthogonalEdgeStyle;rounded=0;orthogonalLoop=1;jettySize=auto;html=1;exitX=0.5;exitY=1;exitDx=0;exitDy=0;" edge="1" parent="A1RB2vR96zj_fB3p0bCd-32" source="WGYEJDp8sxmvNU9je4DJ-20" target="WGYEJDp8sxmvNU9je4DJ-20">
          <mxGeometry relative="1" as="geometry" />
        </mxCell>
        <mxCell id="A1RB2vR96zj_fB3p0bCd-52" value="" style="group" vertex="1" connectable="0" parent="1">
          <mxGeometry x="360" y="310" width="150" height="160.77458256029684" as="geometry" />
        </mxCell>
        <mxCell id="lR6TrqdGa636Y6eZM65I-8" value="" style="whiteSpace=wrap;html=1;fillColor=none;dashed=1;container=0;" parent="A1RB2vR96zj_fB3p0bCd-52" vertex="1">
          <mxGeometry width="150" height="160" as="geometry" />
        </mxCell>
        <mxCell id="lR6TrqdGa636Y6eZM65I-3" value="center" style="whiteSpace=wrap;html=1;aspect=fixed;container=0;" parent="A1RB2vR96zj_fB3p0bCd-52" vertex="1">
          <mxGeometry x="83.47826086956519" y="4.857142857142833" width="45.41743970315398" height="45.41743970315398" as="geometry" />
        </mxCell>
        <mxCell id="lR6TrqdGa636Y6eZM65I-5" value="logic" style="whiteSpace=wrap;html=1;aspect=fixed;container=0;" parent="A1RB2vR96zj_fB3p0bCd-52" vertex="1">
          <mxGeometry x="83.47826086956519" y="60.71428571428572" width="45.41743970315398" height="45.41743970315398" as="geometry" />
        </mxCell>
        <mxCell id="lR6TrqdGa636Y6eZM65I-7" value="scence" style="whiteSpace=wrap;html=1;aspect=fixed;container=0;" parent="A1RB2vR96zj_fB3p0bCd-52" vertex="1">
          <mxGeometry x="83.47826086956519" y="115.35714285714283" width="45.41743970315398" height="45.41743970315398" as="geometry" />
        </mxCell>
        <mxCell id="A1RB2vR96zj_fB3p0bCd-36" style="edgeStyle=none;rounded=0;orthogonalLoop=1;jettySize=auto;html=1;exitX=1;exitY=0.5;exitDx=0;exitDy=0;entryX=0;entryY=0.5;entryDx=0;entryDy=0;" edge="1" parent="A1RB2vR96zj_fB3p0bCd-52" source="A1RB2vR96zj_fB3p0bCd-34" target="lR6TrqdGa636Y6eZM65I-3">
          <mxGeometry relative="1" as="geometry" />
        </mxCell>
        <mxCell id="A1RB2vR96zj_fB3p0bCd-37" style="edgeStyle=none;rounded=0;orthogonalLoop=1;jettySize=auto;html=1;exitX=1;exitY=0.5;exitDx=0;exitDy=0;entryX=0;entryY=0.5;entryDx=0;entryDy=0;" edge="1" parent="A1RB2vR96zj_fB3p0bCd-52" source="A1RB2vR96zj_fB3p0bCd-34" target="lR6TrqdGa636Y6eZM65I-5">
          <mxGeometry relative="1" as="geometry" />
        </mxCell>
        <mxCell id="A1RB2vR96zj_fB3p0bCd-38" style="edgeStyle=none;rounded=0;orthogonalLoop=1;jettySize=auto;html=1;exitX=1;exitY=0.5;exitDx=0;exitDy=0;entryX=0;entryY=0.5;entryDx=0;entryDy=0;" edge="1" parent="A1RB2vR96zj_fB3p0bCd-52" source="A1RB2vR96zj_fB3p0bCd-34" target="lR6TrqdGa636Y6eZM65I-7">
          <mxGeometry relative="1" as="geometry" />
        </mxCell>
        <mxCell id="A1RB2vR96zj_fB3p0bCd-34" value="gate" style="whiteSpace=wrap;html=1;aspect=fixed;container=0;" vertex="1" parent="A1RB2vR96zj_fB3p0bCd-52">
          <mxGeometry x="6.956521739130437" y="60.71428571428572" width="45.41743970315398" height="45.41743970315398" as="geometry" />
        </mxCell>
        <mxCell id="A1RB2vR96zj_fB3p0bCd-51" value="game server" style="text;html=1;strokeColor=none;fillColor=none;align=center;verticalAlign=middle;whiteSpace=wrap;rounded=0;" vertex="1" parent="A1RB2vR96zj_fB3p0bCd-52">
          <mxGeometry x="5" y="4.860000000000014" width="60" height="30" as="geometry" />
        </mxCell>
        <mxCell id="A1RB2vR96zj_fB3p0bCd-53" value="" style="group" vertex="1" connectable="0" parent="1">
          <mxGeometry x="360" y="490" width="190" height="234.86" as="geometry" />
        </mxCell>
        <mxCell id="A1RB2vR96zj_fB3p0bCd-54" value="" style="whiteSpace=wrap;html=1;fillColor=none;dashed=1;container=0;" vertex="1" parent="A1RB2vR96zj_fB3p0bCd-53">
          <mxGeometry width="150" height="160" as="geometry" />
        </mxCell>
        <mxCell id="A1RB2vR96zj_fB3p0bCd-55" value="center" style="whiteSpace=wrap;html=1;aspect=fixed;container=0;" vertex="1" parent="A1RB2vR96zj_fB3p0bCd-53">
          <mxGeometry x="83.47826086956519" y="4.857142857142833" width="45.41743970315398" height="45.41743970315398" as="geometry" />
        </mxCell>
        <mxCell id="A1RB2vR96zj_fB3p0bCd-56" value="logic" style="whiteSpace=wrap;html=1;aspect=fixed;container=0;" vertex="1" parent="A1RB2vR96zj_fB3p0bCd-53">
          <mxGeometry x="83.47826086956519" y="60.71428571428572" width="45.41743970315398" height="45.41743970315398" as="geometry" />
        </mxCell>
        <mxCell id="A1RB2vR96zj_fB3p0bCd-57" value="scence" style="whiteSpace=wrap;html=1;aspect=fixed;container=0;" vertex="1" parent="A1RB2vR96zj_fB3p0bCd-53">
          <mxGeometry x="83.47826086956519" y="115.35714285714283" width="45.41743970315398" height="45.41743970315398" as="geometry" />
        </mxCell>
        <mxCell id="A1RB2vR96zj_fB3p0bCd-58" style="edgeStyle=none;rounded=0;orthogonalLoop=1;jettySize=auto;html=1;exitX=1;exitY=0.5;exitDx=0;exitDy=0;entryX=0;entryY=0.5;entryDx=0;entryDy=0;" edge="1" parent="A1RB2vR96zj_fB3p0bCd-53" source="A1RB2vR96zj_fB3p0bCd-61" target="A1RB2vR96zj_fB3p0bCd-55">
          <mxGeometry relative="1" as="geometry" />
        </mxCell>
        <mxCell id="A1RB2vR96zj_fB3p0bCd-59" style="edgeStyle=none;rounded=0;orthogonalLoop=1;jettySize=auto;html=1;exitX=1;exitY=0.5;exitDx=0;exitDy=0;entryX=0;entryY=0.5;entryDx=0;entryDy=0;" edge="1" parent="A1RB2vR96zj_fB3p0bCd-53" source="A1RB2vR96zj_fB3p0bCd-61" target="A1RB2vR96zj_fB3p0bCd-56">
          <mxGeometry relative="1" as="geometry" />
        </mxCell>
        <mxCell id="A1RB2vR96zj_fB3p0bCd-60" style="edgeStyle=none;rounded=0;orthogonalLoop=1;jettySize=auto;html=1;exitX=1;exitY=0.5;exitDx=0;exitDy=0;entryX=0;entryY=0.5;entryDx=0;entryDy=0;" edge="1" parent="A1RB2vR96zj_fB3p0bCd-53" source="A1RB2vR96zj_fB3p0bCd-61" target="A1RB2vR96zj_fB3p0bCd-57">
          <mxGeometry relative="1" as="geometry" />
        </mxCell>
        <mxCell id="A1RB2vR96zj_fB3p0bCd-61" value="gate" style="whiteSpace=wrap;html=1;aspect=fixed;container=0;" vertex="1" parent="A1RB2vR96zj_fB3p0bCd-53">
          <mxGeometry x="6.956521739130437" y="60.71428571428572" width="45.41743970315398" height="45.41743970315398" as="geometry" />
        </mxCell>
        <mxCell id="A1RB2vR96zj_fB3p0bCd-62" value="game server" style="text;html=1;strokeColor=none;fillColor=none;align=center;verticalAlign=middle;whiteSpace=wrap;rounded=0;" vertex="1" parent="A1RB2vR96zj_fB3p0bCd-53">
          <mxGeometry x="5" y="4.860000000000014" width="60" height="30" as="geometry" />
        </mxCell>
        <mxCell id="A1RB2vR96zj_fB3p0bCd-74" value="" style="rounded=0;whiteSpace=wrap;html=1;fillColor=none;dashed=1;" vertex="1" parent="A1RB2vR96zj_fB3p0bCd-53">
          <mxGeometry x="-40" y="-195.14" width="220" height="385.14" as="geometry" />
        </mxCell>
        <mxCell id="A1RB2vR96zj_fB3p0bCd-64" style="edgeStyle=orthogonalEdgeStyle;rounded=0;orthogonalLoop=1;jettySize=auto;html=1;exitX=1;exitY=0.5;exitDx=0;exitDy=0;entryX=0;entryY=0.5;entryDx=0;entryDy=0;" edge="1" parent="1" source="A1RB2vR96zj_fB3p0bCd-28" target="lR6TrqdGa636Y6eZM65I-8">
          <mxGeometry relative="1" as="geometry" />
        </mxCell>
        <mxCell id="A1RB2vR96zj_fB3p0bCd-65" style="edgeStyle=orthogonalEdgeStyle;rounded=0;orthogonalLoop=1;jettySize=auto;html=1;exitX=1;exitY=0.5;exitDx=0;exitDy=0;entryX=0;entryY=0.5;entryDx=0;entryDy=0;" edge="1" parent="1" source="A1RB2vR96zj_fB3p0bCd-28" target="A1RB2vR96zj_fB3p0bCd-54">
          <mxGeometry relative="1" as="geometry" />
        </mxCell>
        <mxCell id="A1RB2vR96zj_fB3p0bCd-69" value="HTTP" style="text;html=1;strokeColor=none;fillColor=none;align=center;verticalAlign=middle;whiteSpace=wrap;rounded=0;" vertex="1" parent="1">
          <mxGeometry x="-130" y="120" width="60" height="30" as="geometry" />
        </mxCell>
        <mxCell id="A1RB2vR96zj_fB3p0bCd-71" value="WS" style="text;html=1;strokeColor=none;fillColor=none;align=center;verticalAlign=middle;whiteSpace=wrap;rounded=0;" vertex="1" parent="1">
          <mxGeometry x="-110" y="450" width="60" height="30" as="geometry" />
        </mxCell>
        <mxCell id="A1RB2vR96zj_fB3p0bCd-73" style="edgeStyle=none;rounded=0;orthogonalLoop=1;jettySize=auto;html=1;exitX=0;exitY=0.25;exitDx=0;exitDy=0;" edge="1" parent="1">
          <mxGeometry relative="1" as="geometry">
            <mxPoint x="320" y="382.5" as="sourcePoint" />
            <mxPoint x="320" y="382.5" as="targetPoint" />
          </mxGeometry>
        </mxCell>
        <mxCell id="A1RB2vR96zj_fB3p0bCd-81" style="edgeStyle=none;rounded=0;orthogonalLoop=1;jettySize=auto;html=1;exitX=0;exitY=0.5;exitDx=0;exitDy=0;" edge="1" parent="1" source="A1RB2vR96zj_fB3p0bCd-76">
          <mxGeometry relative="1" as="geometry">
            <mxPoint x="750" y="210" as="targetPoint" />
          </mxGeometry>
        </mxCell>
        <mxCell id="A1RB2vR96zj_fB3p0bCd-76" value="支付服务器" style="whiteSpace=wrap;html=1;aspect=fixed;" vertex="1" parent="1">
          <mxGeometry x="810" y="210" width="80" height="80" as="geometry" />
        </mxCell>
        <mxCell id="A1RB2vR96zj_fB3p0bCd-80" style="edgeStyle=none;rounded=0;orthogonalLoop=1;jettySize=auto;html=1;exitX=0;exitY=0.5;exitDx=0;exitDy=0;entryX=1;entryY=0.5;entryDx=0;entryDy=0;" edge="1" parent="1" source="A1RB2vR96zj_fB3p0bCd-77" target="A1RB2vR96zj_fB3p0bCd-79">
          <mxGeometry relative="1" as="geometry" />
        </mxCell>
        <mxCell id="A1RB2vR96zj_fB3p0bCd-77" value="GM服务器" style="whiteSpace=wrap;html=1;aspect=fixed;" vertex="1" parent="1">
          <mxGeometry x="810" y="120" width="80" height="80" as="geometry" />
        </mxCell>
        <mxCell id="A1RB2vR96zj_fB3p0bCd-82" style="edgeStyle=none;rounded=0;orthogonalLoop=1;jettySize=auto;html=1;exitX=0;exitY=0.5;exitDx=0;exitDy=0;entryX=1.014;entryY=0.482;entryDx=0;entryDy=0;entryPerimeter=0;" edge="1" parent="1" source="A1RB2vR96zj_fB3p0bCd-79" target="A1RB2vR96zj_fB3p0bCd-74">
          <mxGeometry relative="1" as="geometry" />
        </mxCell>
        <mxCell id="A1RB2vR96zj_fB3p0bCd-79" value="nginx" style="whiteSpace=wrap;html=1;aspect=fixed;" vertex="1" parent="1">
          <mxGeometry x="670" y="170" width="80" height="80" as="geometry" />
        </mxCell>
        <mxCell id="A1RB2vR96zj_fB3p0bCd-83" style="edgeStyle=none;rounded=0;orthogonalLoop=1;jettySize=auto;html=1;exitX=1;exitY=0.5;exitDx=0;exitDy=0;entryX=0.011;entryY=0.454;entryDx=0;entryDy=0;entryPerimeter=0;" edge="1" parent="1" source="A1RB2vR96zj_fB3p0bCd-74" target="WGYEJDp8sxmvNU9je4DJ-15">
          <mxGeometry relative="1" as="geometry" />
        </mxCell>
      </root>
    </mxGraphModel>
  </diagram>
</mxfile>
